<svg aria-hidden="true" style="position: absolute; width: 0; height: 0; overflow: hidden;" version="1.1" xmlns="http://www.w3.org/2000/svg" xmlns:xlink="http://www.w3.org/1999/xlink">
<defs>
<symbol id="icon-logo" viewBox="0 0 31 32">
<path d="M18.552 14.294l-1.749-4.007-0.381-0.264-0.447-0.142-0.605-0.163-0.71 0.305-0.474 0.264 1.789 4.007h2.578z"></path>
<path d="M12.274 12.954l1.749 4.017 0.381 0.265 0.447 0.143 0.605 0.163 0.71-0.306 0.474-0.265-1.789-4.017h-2.578z"></path>
<path d="M14.091 10.339l-2.716 3.926 2.716 0.029 1.963-3.955c0.138-0.405 0.569-0.169 0.768 0-0.848-1.554-2.174-0.647-2.731 0z"></path>
<path d="M16.724 16.92l2.716-3.926-2.716-0.029-1.963 3.955c-0.138 0.405-0.569 0.169-0.768 0 0.848 1.554 2.174 0.647 2.731 0z"></path>
</symbol>
<symbol id="icon-Vektor-3" viewBox="0 0 32 32">
<path d="M2.667 7.993c0-0.733 0.595-1.327 1.327-1.327h10.68c0.733 0 1.327 0.594 1.327 1.327s-0.594 1.327-1.327 1.327h-10.68c-0.733 0-1.327-0.594-1.327-1.327v0zM2.667 16c0-0.733 0.595-1.327 1.327-1.327h24.013c0.733 0 1.327 0.594 1.327 1.327s-0.594 1.327-1.327 1.327h-24.013c-0.733 0-1.327-0.594-1.327-1.327v0zM3.993 22.68c-0.733 0-1.327 0.594-1.327 1.327s0.594 1.327 1.327 1.327h16.013c0.733 0 1.327-0.594 1.327-1.327s-0.594-1.327-1.327-1.327h-16.013z"></path>
</symbol>
</defs>
</svg>
